<?xml version="1.0" encoding="utf-8"?>
<!-- Generator: Adobe Illustrator 27.5.0, SVG Export Plug-In . SVG Version: 6.00 Build 0)  -->
<svg version="1.1" xmlns="http://www.w3.org/2000/svg" xmlns:xlink="http://www.w3.org/1999/xlink" x="0px" y="0px"
	 viewBox="0 0 559 529" style="enable-background:new 0 0 559 529;" xml:space="preserve">
<style type="text/css">
	.st0{display:none;}
	.st1{display:inline;opacity:0.38;}
	.st2{fill:none;stroke:#000000;stroke-miterlimit:10;}
	.st3{fill:none;}
	.st4{font-family:'EdwardianScriptITC';}
	.st5{font-size:114px;}
	.st6{font-family:'ErasITC-Light';}
	.st7{font-size:38px;}
</style>
<g id="Layer_1" class="st0">
	<g class="st1">
		<g>
			<path d="M289,21c33.75,0,66.49,6.61,97.31,19.65c29.77,12.59,56.51,30.62,79.47,53.58c22.96,22.96,40.99,49.7,53.58,79.47
				C532.39,204.51,539,237.25,539,271c0,33.75-6.61,66.49-19.65,97.31c-12.59,29.77-30.62,56.51-53.58,79.47
				c-22.96,22.96-49.7,40.99-79.47,53.58C355.49,514.39,322.75,521,289,521s-66.49-6.61-97.31-19.65
				c-29.77-12.59-56.51-30.62-79.47-53.58c-22.96-22.96-40.99-49.7-53.58-79.47C45.61,337.49,39,304.75,39,271
				c0-33.75,6.61-66.49,19.65-97.31c12.59-29.77,30.62-56.51,53.58-79.47c22.96-22.96,49.7-40.99,79.47-53.58
				C222.51,27.61,255.25,21,289,21 M289,18C149.27,18,36,131.27,36,271s113.27,253,253,253s253-113.27,253-253S428.73,18,289,18
				L289,18z"/>
		</g>
		<g>
			<path d="M408.5,264c42.07,0,81.62,16.38,111.37,46.13C549.62,339.88,566,379.43,566,421.5s-16.38,81.62-46.13,111.37
				S450.57,579,408.5,579s-81.62-16.38-111.37-46.13C267.38,503.12,251,463.57,251,421.5s16.38-81.62,46.13-111.37
				C326.88,280.38,366.43,264,408.5,264 M408.5,261C319.86,261,248,332.86,248,421.5S319.86,582,408.5,582S569,510.14,569,421.5
				S497.14,261,408.5,261L408.5,261z"/>
		</g>
		<g>
			<path d="M158,150c35.26,0,68.41,13.73,93.34,38.66C276.27,213.59,290,246.74,290,282s-13.73,68.41-38.66,93.34
				C226.41,400.27,193.26,414,158,414s-68.41-13.73-93.34-38.66C39.73,350.41,26,317.26,26,282s13.73-68.41,38.66-93.34
				C89.59,163.73,122.74,150,158,150 M158,147c-74.56,0-135,60.44-135,135s60.44,135,135,135s135-60.44,135-135S232.56,147,158,147
				L158,147z"/>
		</g>
	</g>
</g>
<g id="Layer_2">
	<g>
		<path class="st2" d="M278,264"/>
		<path class="st2" d="M278,264"/>
		<path class="st2" d="M278,264"/>
		<path class="st2" d="M278,264"/>
		<path class="st2" d="M278,264"/>
		<g>
			<g>
				<path d="M512.47,353.76c-78.36,153.81-272.18,199.7-404.83,84.62c-10.47-9.03-20.41-18.68-29.24-29.34
					c-8.7-10.8-16.12-22.54-22.77-34.65c-26.66-48.41-38.13-105.72-28.36-160.4c0.29-1.66,1.75-8.71,2.02-10.19
					c0.3-1.35,1.17-4.67,1.49-6.05c3.85-16.18,10.44-31.67,17.82-46.51C92.3,62.41,185.03,6.02,283.95,7.7
					c78.81,0.96,161.68,41.06,205.99,107.18c30.29,45.87,46.47,102.89,41.03,157.86c-1.91,14.87-7.57,40.6-25.91,42.28
					c-6.15,0.36-11.95-2.91-16.89-6.05c-4.72-3.06-9.11-6.3-13.57-9.37c-13.22-9.29-27.51-17-42.92-21.9
					c-34.84-11.35-72.7-9.19-107.66,0.66c-28.76,7.45-52.02,20.28-75.15,38.74c-27.43,22.03-47.2,32.9-83.65,28.64
					c-35.9-3.47-69.18-21.28-94.45-46.6c-3.84-4.01-7.64-8.11-10.12-13.17c-0.68-1.44-1.2-3.12-1.14-4.84
					c1.39-9.19,21.04-4.03,26.62-1.5c16.15,6.15,25.44,22.27,25.34,39.17c0,0-0.4-0.01-0.4-0.01c0-5.43-1.1-10.86-2.98-15.96
					c-1.93-5.08-4.85-9.8-8.67-13.67c-7.69-7.68-18.7-11.77-29.45-12.32c-5.57-0.13-12.11,1.24-8.41,8.69
					c2.43,4.87,6.22,8.94,9.99,12.82c7.73,7.71,16.32,14.52,25.34,20.67c29.54,20.35,73.88,32.5,108.93,21.77
					c15.75-4.98,28.79-15.44,41.65-25.47c12.87-10.14,26.41-19.62,41.24-26.72c19.75-9.47,41.11-15.25,62.65-18.93
					c43.73-7.27,88.81,1.11,125,27.31c6.8,4.53,13.19,9.8,20.66,13.16c8.18,3.87,15.93,0.41,20.78-6.98
					c19.53-31.22,9.27-94.13-2.25-127.59C495.67,112.5,447.42,61.15,386.94,34.98c-22.4-9.94-46.09-17.51-70.42-20.78
					c0,0-8.11-1.1-8.11-1.1s-8.16-0.68-8.16-0.68c-4.6-0.5-11.66-0.6-16.35-0.76c-73.72-1.01-147.59,30.7-195.67,86.96
					c-60.23,68.67-77.89,159.34-43.57,244.55c8.01,20.3,18.38,39.72,31.16,57.43c12.08,16.52,27.29,30.6,43.19,43.39
					C252.04,550.07,435.26,499.91,512.47,353.76L512.47,353.76z"/>
			</g>
			<g>
				<path d="M102.31,326.59c-8.35,3.92-13.97,12.45-14.47,21.62c-0.53,6.73,4.56,8.83,10.44,8.81c7.27-0.02,14.57-2.42,20.57-6.53
					c10.97-7.25,10.67-17.52,15.51-28.34c2.27-5.08,5.22-9.83,8.65-14.21c2.28-2.88,5.74-6.03,9.77-4.98
					c5.58,1.59,8.98,7.66,9.64,13.11c1.1,11.76-9.51,22.39-21.13,20.11c11.53,1.36,21.41-8.55,20.18-20.01
					c-0.65-6.18-6.84-15.46-13.8-11.25c-2.99,1.97-5.1,5.12-7.13,8.06c-2.05,3.03-3.94,6.17-5.48,9.49
					c-5.08,10.89-5,20.81-16.01,28.3c-7.54,5.07-17.24,8.64-26.35,6.34c-1.82-0.57-3.67-1.64-4.6-3.36
					c-1.88-3.47-1.05-7.52-0.07-11.09C89.9,335.56,95.58,329.08,102.31,326.59L102.31,326.59z"/>
			</g>
			<g>
				<path d="M156.23,353.61c-7.24-1.53-18.12-1.52-22.54,5.41c-1.98,4.6,2,9.49,5.68,12.01c6.11,4.33,12.72,1.6,17.48-3.35
					c4.57-4.78,8.82-10.11,11.13-16.35c2.39-6.21,5.02-12.38,8.13-18.3c3.75-6.79,11.75-21.81,20.98-19.9
					c3.41,0.9,6.02,3.59,7.53,6.67c3.43,6.85-1.26,13.76-7.82,16.21c0,0-0.04-0.09-0.04-0.09c6.1-2.57,10.67-9.43,7.21-15.81
					c-13.28-22.04-31.06,21.02-35.49,31.43c-1.3,3.08-2.93,6.04-4.94,8.72c-3.08,3.93-6.14,8.02-10.28,10.92
					c-4.16,3.22-9.97,3.58-14.35,0.54c-4.06-2.68-8.28-8.03-5.96-13.07C137.27,351.51,149.33,351.32,156.23,353.61L156.23,353.61z"
					/>
			</g>
			<g>
				<path d="M193.97,348.62c-6,1.3-12.21,3.61-16.42,8.19c-5.37,5.65-0.74,11.49,5.44,13.45c0.6,0.23,1.59,0.34,2.22,0.48
					c1.08,0.07,2.37,0.08,3.44-0.06c10.37-1.81,19.23-9.64,24.04-18.79c4.21-8.37,7.21-17.36,9.27-26.49
					c0.72-3.08,1.32-6.21,2.67-9.12c2.41-5.52,10.29-10.05,16.15-7.87c7.15,3.23,5.33,12.07-0.6,15.5c0,0-0.05-0.08-0.05-0.08
					c3.76-2.49,6.36-7.82,3.79-11.93c-1.63-2.62-4.84-3.81-7.82-3.11c-4.37,0.98-8.69,3.74-10.53,7.92c-2.35,5.7-3,12.17-5.07,18.04
					c-3.08,8.87-6.42,18.02-12.82,25.07c-3.19,3.49-6.99,6.41-11.13,8.68c-2.77,1.52-5.81,2.69-8.99,2.97
					c-0.72,0.15-1.68,0-2.41,0.03c-0.67-0.14-1.75-0.19-2.38-0.45c-6.86-2.07-11.65-8.65-5.78-14.76
					C181.3,351.76,188.02,349.25,193.97,348.62L193.97,348.62z"/>
			</g>
			<path class="st2" d="M260.29,355.61"/>
			<g>
				<path d="M248.98,322.89c-5.45,2.41-16.26,10.86-11.41,17.41c5.1,5.63,12.3,2.99,17.06-1.7c7.05-6.44,10.08-15.68,11.16-24.94
					c0.81-5.28,1.3-10.56,1.34-15.9c0.07-2.66,0.06-5.37,0.6-8.07c0.85-4.98,6.28-10.88,11.65-9.97c6.28,1.58,5.88,9.77,1.91,13.53
					c0,0-0.07-0.07-0.07-0.07c3.46-3.66,3.82-11.38-2-12.7c-4.81-0.7-9.77,4.98-10.48,9.41c-0.51,2.54-0.46,5.23-0.57,7.89
					c-0.12,5.35-0.66,10.73-1.6,16c-1.23,7.93-3.74,15.88-8.96,22.12c-3.41,4.05-7.67,8.34-13.36,8.45
					c-4.04-0.14-8.85-2.97-8.73-7.47C235.93,330.31,243.39,324.78,248.98,322.89L248.98,322.89z"/>
			</g>
		</g>
		<rect x="65.37" y="185" class="st3" width="425.26" height="134"/>
		<text transform="matrix(1 0 0 1 108.1689 241.6504)" class="st4 st5">Lavander</text>
		<rect x="291.39" y="296.91" class="st3" width="164.35" height="52.09"/>
		<text transform="matrix(1 0 0 1 326.6035 322.2588)" class="st6 st7">FARM</text>
	</g>
</g>
</svg>
